<?xml version="1.0" standalone="no"?>
<!DOCTYPE svg PUBLIC "-//W3C//DTD SVG 20010904//EN"
 "http://www.w3.org/TR/2001/REC-SVG-20010904/DTD/svg10.dtd">
<svg version="1.0" xmlns="http://www.w3.org/2000/svg"
 width="260.000000pt" height="260.000000pt" viewBox="0 0 260.000000 260.000000"
 preserveAspectRatio="xMidYMid meet">
<metadata>
Created by potrace 1.11, written by Peter Selinger 2001-2013
</metadata>
<g transform="translate(0.000000,260.000000) scale(0.100000,-0.100000)"
fill="#000000" stroke="none">
<path d="M0 1300 l0 -1300 1300 0 1300 0 0 1300 0 1300 -1300 0 -1300 0 0
-1300z m1828 1125 c221 -52 362 -222 424 -510 25 -118 35 -417 19 -579 -16
-159 -55 -381 -86 -491 -59 -206 -183 -407 -320 -518 -71 -58 -214 -129 -305
-152 -300 -75 -722 30 -979 245 -124 105 -198 219 -243 377 -32 111 -32 310 0
437 74 296 261 592 517 818 317 280 717 433 973 373z"/>
<path d="M1343 1740 c-29 -4 -81 -21 -117 -38 -204 -96 -258 -326 -113 -479
65 -69 104 -89 290 -147 164 -52 213 -84 248 -161 25 -55 24 -92 -6 -152 -90
-179 -377 -176 -469 6 -34 66 -58 84 -111 84 -36 0 -51 -5 -75 -28 -37 -36
-39 -71 -5 -143 63 -135 250 -242 425 -242 183 0 360 102 432 248 30 60 33 75
33 157 0 82 -3 97 -33 157 -36 74 -107 145 -182 183 -25 12 -112 44 -193 70
-184 58 -217 83 -217 165 0 46 4 56 33 85 55 55 145 67 219 29 15 -8 41 -34
58 -59 37 -54 56 -65 110 -65 50 0 100 42 100 85 0 96 -142 217 -290 245 -58
11 -61 11 -137 0z"/>
</g>
</svg>
